<svg id="Capa_1" enable-background="new 0 0 511.204 511.204" height="512" viewBox="0 0 511.204 511.204" width="512" xmlns="http://www.w3.org/2000/svg"><g><g><g><path d="m383.222 82.227c-3.887-4.184-9.391-6.583-15.101-6.583h-33.886l1.376-12.383 40.819-20.726c5.595-2.841 8.617-9.118 7.349-15.263l-3.331-16.144c-.895-4.333-3.829-8.021-7.851-9.865-4.021-1.843-8.73-1.66-12.597.49l-20.179 11.221c-3.62 2.013-4.923 6.58-2.91 10.2 2.013 3.621 6.58 4.923 10.2 2.91l18.935-10.529 2.882 13.968-40.957 20.796c-3.99 2.026-6.667 5.891-7.162 10.338l-1.666 14.988h-13.095l3.033-25.553c.228-1.918 1.372-3.625 3.061-4.563l5.321-2.958c3.62-2.013 4.923-6.579 2.91-10.199-2.012-3.62-6.579-4.924-10.199-2.91l-5.321 2.958c-5.886 3.272-9.873 9.218-10.667 15.906l-3.242 27.321h-147.861c-5.71 0-11.214 2.399-15.101 6.583-3.886 4.183-5.875 9.849-5.456 15.543l29.052 394.336c.789 10.708 9.818 19.097 20.556 19.097h166.937c10.737 0 19.767-8.388 20.556-19.097l29.051-394.336c.419-5.697-1.569-11.362-5.456-15.546zm-78.953 8.417h13.207l-6.046 54.388h-13.616zm69.449 6.024-29.051 394.336c-.215 2.916-2.673 5.199-5.597 5.199h-166.936c-2.923 0-5.382-2.284-5.597-5.199l-29.051-394.336c-.116-1.573.412-3.076 1.485-4.232 1.074-1.155 2.534-1.792 4.111-1.792h146.081l-6.455 54.388h-107.365c-3.771 0-7.403 1.586-9.965 4.353s-3.867 6.51-3.578 10.27l12.156 158.396c.317 4.13 3.927 7.222 8.052 6.904 4.13-.317 7.221-3.922 6.904-8.052l-12.039-156.872h157.458l-23.21 302.425h-111.038l-8.52-111.022c-.317-4.13-3.928-7.219-8.052-6.904-4.13.317-7.221 3.922-6.904 8.052l8.621 112.331c.541 7.034 6.49 12.543 13.544 12.543h113.662c7.055 0 13.004-5.51 13.543-12.544l23.428-305.258c.289-3.76-1.016-7.503-3.578-10.27-2.563-2.766-6.195-4.353-9.966-4.353h-9.337l6.046-54.388h35.553c1.578 0 3.038.637 4.111 1.792s1.6 2.66 1.484 4.233z"/><path d="m243.551 443.248c3.001 3 6.943 4.501 10.885 4.501s7.884-1.5 10.885-4.501l35.788-35.788c6.001-6.001 6.002-15.768 0-21.77l-35.787-35.787c-2.907-2.908-6.773-4.509-10.885-4.509s-7.978 1.601-10.885 4.509l-35.787 35.787c-2.908 2.908-4.509 6.773-4.509 10.885s1.601 7.978 4.509 10.885zm-25.181-46.952 35.787-35.787c.032-.032.116-.115.279-.115s.246.083.278.115l35.787 35.787c.154.154.154.404 0 .558l-35.788 35.788c-.153.154-.404.153-.557 0l-35.788-35.788c-.031-.032-.115-.115-.115-.278.002-.164.086-.248.117-.28z"/><path d="m232.611 261.646-13.445 13.445c-6.001 6.001-6.002 15.768 0 21.77l35.787 35.787c2.907 2.908 6.773 4.51 10.885 4.51s7.978-1.602 10.885-4.509l35.787-35.787c2.908-2.908 4.509-6.773 4.509-10.885s-1.601-7.978-4.509-10.885l-24.846-24.846 13.445-13.445c2.908-2.907 4.509-6.773 4.509-10.885s-1.602-7.979-4.509-10.885l-35.787-35.787c-2.908-2.908-6.773-4.509-10.885-4.509s-7.978 1.601-10.885 4.509l-35.788 35.787c-2.908 2.907-4.509 6.773-4.509 10.885s1.601 7.978 4.509 10.885zm69.293 24.052c.031.032.115.115.115.278s-.083.247-.115.279l-35.787 35.787c-.032.032-.116.116-.279.116s-.246-.084-.278-.116l-35.787-35.787c-.154-.154-.154-.404 0-.558l13.445-13.445.335.335c3.001 3.001 6.942 4.501 10.885 4.501 3.941 0 7.884-1.501 10.885-4.501l11.736-11.736zm-83.533-60.062 35.788-35.788c.032-.031.115-.115.278-.115s.247.083.279.115l35.788 35.788c.031.032.115.115.115.278s-.084.246-.115.278l-35.787 35.787c-.153.154-.403.154-.558 0l-35.788-35.788c-.031-.032-.115-.115-.115-.278 0-.162.084-.245.115-.277z"/></g></g></g></svg>