<svg id="Capa_1" enable-background="new 0 0 512 512" height="512" viewBox="0 0 512 512" width="512" xmlns="http://www.w3.org/2000/svg"><g><path d="m332.463 327.271c-5.523 0-10 4.477-10 10s4.477 10 10 10h.057c5.523 0 9.972-4.477 9.972-10s-4.506-10-10.029-10z"/><path d="m498.548 329.607c5.817-7.58 9.285-17.05 9.285-27.32 0-22.562-16.728-41.29-38.444-44.473 5.706-7.624 10.591-16.395 14.461-26.114.008-.02.027-.033.049-.033h7.556c11.329 0 20.545-8.044 20.545-17.932 0-48.823-28.434-89.551-82.228-117.781-46.023-24.152-107.737-37.454-173.772-37.454-.004 0-.008 0-.013 0h-.002c-.001 0-.001 0-.001 0-66.03.002-127.737 13.304-173.756 37.454-53.794 28.231-82.228 68.959-82.228 117.781 0 10.055 9.024 17.932 20.545 17.932h7.554c.022 0 .041.013.049.033 3.866 9.713 8.75 18.484 14.456 26.111-21.711 3.176-38.437 21.907-38.437 44.475 0 10.267 3.464 19.736 9.276 27.315-7.853 3.2-10.971 8.895-12.101 11.86-3.565 9.357.314 20.917 9.891 29.454 58.983 52.485 148.198 82.585 244.767 82.585s185.784-30.1 244.783-82.597c9.557-8.541 13.426-20.101 9.857-29.451-1.13-2.961-4.247-8.646-12.092-11.845zm-426.437-69.972c-.05-.042-.104-.079-.155-.12-8.698-6.646-16.214-16.124-21.939-27.77-.018-.036.009-.078.048-.078h40.236c.017 0 .034.008.044.022l25.449 35.827c.021.029.007.071-.026.083-9.709 3.415-19.784 3.374-29.616-.198-4.935-1.792-9.635-4.423-14.041-7.766zm42.809-27.884c-.025-.035 0-.084.044-.084h125.266c.043 0 .069.049.044.084l-28.315 39.875c-.02.028-.04.056-.059.084l-34.248 48.23c-.021.03-.066.03-.087 0zm149.927-.062c.01-.014.026-.022.044-.022h197.042c.04 0 .066.043.048.078-5.599 11.386-12.903 20.694-21.352 27.311-.285.194-.558.404-.821.626-4.508 3.408-9.325 6.072-14.386 7.86-13.387 4.727-27.172 2.936-39.866-5.18-4.466-2.854-10.383-1.73-13.489 2.564-9.119 12.607-20.939 19.55-33.283 19.55s-24.164-6.943-33.282-19.55c-3.992-5.518-12.21-5.519-16.204-.002-8.588 11.866-19.71 18.791-31.318 19.499-8.538.522-17.07-2.396-24.629-8.289-.023-.018-.028-.051-.011-.075zm-229.942-20.022h-14.36c-.191 0-.366-.013-.523-.035 1.036-50.437 39.316-81.079 71.5-97.969 6.974-3.66 14.35-7.05 22.071-10.169.035-.014.074.012.074.05v13.544c0 5.354 4.038 10.051 9.382 10.372 5.803.349 10.618-4.254 10.618-9.981v-21.182c0-.023.015-.044.037-.051 14.477-4.639 29.909-8.41 46.059-11.265.033-.006.063.02.063.053v44.433c0 5.354 4.038 10.051 9.382 10.372 5.803.349 10.618-4.254 10.618-9.981v-47.859c0-.027.02-.05.047-.053 14.918-1.873 30.328-2.995 46.057-3.331.03-.001.055.024.055.054v61.761c0 5.354 4.038 10.051 9.382 10.372 5.803.349 10.618-4.254 10.618-9.981v-62.153c0-.03.025-.054.055-.054 15.73.335 31.139 1.456 46.057 3.328.027.003.047.026.047.053v47.471c0 5.354 4.038 10.051 9.382 10.372 5.803.349 10.618-4.254 10.618-9.981v-44.828c0-.033.03-.059.063-.053 16.16 2.855 31.602 6.628 46.087 11.27.022.007.037.028.037.051v20.791c0 5.354 4.038 10.051 9.382 10.372 5.803.349 10.618-4.254 10.618-9.981v-13.934c0-.038.039-.064.074-.05 7.721 3.119 15.097 6.509 22.071 10.169 32.184 16.89 70.464 47.531 71.5 97.968-.157.021-.332.035-.523.035h-14.343c-.016 0-.033 0-.049 0h-442.15c-.002 0-.004 0-.006 0zm14.241 65.664h13.301c5.306 3.727 10.954 6.717 16.875 8.869 7.179 2.608 14.541 3.9 21.888 3.9 8.979 0 17.933-1.933 26.486-5.755.023-.01.05-.003.065.017l30.42 42.825c.025.035 0 .084-.044.084h-108.991c-13.773 0-24.979-11.208-24.979-24.984 0-13.761 11.206-24.956 24.979-24.956zm442.457 73.096c-.541 1.411-1.75 3.421-4.131 5.549-116.818 103.943-346.126 103.942-462.938.006-2.393-2.134-3.607-4.146-4.15-5.557-.408-1.059.212-2.238 1.301-2.558 1.087-.319 2.729-.596 5.067-.596h260.42c5.354 0 10.051-4.038 10.372-9.382.349-5.803-4.254-10.618-9.981-10.618h-90.485c-.043 0-.069-.049-.044-.084l24.652-34.716c.017-.024.051-.029.075-.011 10.321 7.845 22.094 12.024 34.209 12.024 1.073 0 2.149-.033 3.227-.098 14.001-.854 27.219-7.199 38.154-18.137.021-.021.054-.021.075 0 11.786 11.836 26.132 18.227 41.358 18.228 16.312 0 31.62-7.339 43.847-20.85.016-.017.041-.022.062-.012 15.792 7.535 33.036 8.562 49.39 2.786 6.134-2.167 11.979-5.224 17.457-9.069h13.286c13.789 0 25.007 11.195 25.007 24.956 0 13.776-11.218 24.984-25.007 24.984h-85.073c-5.354 0-10.051 4.038-10.372 9.382-.349 5.803 4.254 10.618 9.981 10.618h107.856c2.344 0 3.99.277 5.08.597 1.09.319 1.711 1.497 1.305 2.558z"/></g></svg>